<?xml version="1.0" encoding="UTF-8"?>
<svg id="Layer_1" xmlns="http://www.w3.org/2000/svg" version="1.1" viewBox="0 0 449.9 227.2">
  <!-- Generator: Adobe Illustrator 30.3.0, SVG Export Plug-In . SVG Version: 2.1.3 Build 182)  -->
  <defs>
    <style>
      .st0 {
        fill: #1a1a18;
      }

      .st0, .st1, .st2, .st3, .st4, .st5, .st6, .st7, .st8, .st9, .st10, .st11, .st12, .st13, .st14 {
        fill-rule: evenodd;
      }

      .st1 {
        fill: #afca05;
      }

      .st2 {
        fill: none;
        stroke: #005ca9;
        stroke-miterlimit: 22.9;
        stroke-width: .3px;
      }

      .st3 {
        fill: #346982;
      }

      .st4 {
        fill: #fff;
      }

      .st5 {
        fill: #e5007d;
      }

      .st6 {
        fill: #7eaf39;
      }

      .st7, .st15 {
        fill: #005ca9;
      }

      .st8 {
        fill: #ec6602;
      }

      .st9 {
        fill: #e1da10;
      }

      .st10 {
        fill: #000003;
      }

      .st11 {
        fill: #00963f;
      }

      .st12 {
        fill: #98211e;
      }

      .st13 {
        fill: #8fd0e1;
      }

      .st14 {
        fill: #134152;
      }
    </style>
  </defs>
  <path class="st12" d="M305.2,58.3c-34.6,42.9-4.6,102.4,50.4,112.3-97.4,9-109-70.2-50.4-112.3Z"/>
  <path class="st13" d="M405.5,32.7c67.8,76.2-6.7,99-54.7,98.3,2.9-.5,5.2-1.1,6.5-1.7h0c34.6-10,64-54.7,48.1-96.7Z"/>
  <path class="st12" d="M386.9,62c4.1,3.8,12.3,10.3,17.3,23-2.9,6.9-6.7,13.4-11.2,19.2,5.6-18.2,2.6-29.7-6-42.2Z"/>
  <path class="st1" d="M350.8,131c31.7.5,75.2-9.4,81.2-38.3-.4,20.5-7,38.8-23,51.7-36,10.5-75.5,8.6-104.5-14.1-1.9-1.5-3.8-3.2-5.7-4.9-.4-.4-.8-.8-1.3-1.2,13.8,10.9,40,9.3,53.2,6.8Z"/>
  <path class="st13" d="M446.8,75.1c1.2,34.3-9.4,52.6-22.9,64.2-4.9,1.9-9.8,3.6-14.9,5.1,13.9-11.3,20.7-26.6,22.5-44,6-7.6,11.2-15.8,15.3-25.3Z"/>
  <path class="st6" d="M297.5,124.2c33.4,32.3,84.5,32,127.3,14.7-16.8,17.7-45.6,30.9-69.2,31.6-29.1-5.2-51.2-24.3-60.4-47.5-.1-.3-.3-.7-.4-1h0s0-.6,0-.6c.9,1,1.8,1.8,2.9,2.7Z"/>
  <path class="st6" d="M292,84.8c-.4,29,35.3,49,65.3,44.6-8.1,3.1-47.8,8.8-62.8-8-4.3-11.6-5.4-24.2-2.5-36.6Z"/>
  <path class="st13" d="M250.2,120.7c8.2,6,15.1,9.9,21.5,12,2.6,8.8,7.9,16.7,15.8,23.1-13.3-6.4-26-17-37.2-35.1Z"/>
  <path class="st9" d="M298.9,12.7c-26.4,28.4-22.3,57.8-16,67.6-10.6,14.8-15,31.1-12.7,45.8-54.5-25.8-23-97.7,28.7-113.4Z"/>
  <path class="st9" d="M357.3,5.2c-45.3,11.6-63.5,48.1-64.4,63.4,3.7-3.6,7.7-7.1,12.2-10.3,8.9-7.4,18.8-13.9,30.8-14.2,34.1.2,45.7-23.6,21.4-38.9Z"/>
  <path class="st7" d="M193.6,58.5c0,12.7-3.2,22.6-9.6,29.6-6.4,7-15.5,10.5-27.2,10.5s-11.3-1.2-15.5-3.6c-4.2-2.4-6.3-5.2-6.3-8.5,4,4.2,7.8,6.9,11.4,8.3,1.7.6,4.2.9,7.4.9,7,0,12.7-3.5,17-10.5,4.3-7,6.5-16.4,6.5-28.2s-4-26.7-12.1-34.8c-8.4-8.6-19.9-12.8-34.4-12.8h-2.4v103.8c0,5.6,4,11.7,12.1,18.3,8.1,6.6,12.1,11.9,12.1,15.8s0,1.5-.2,2c-3.6-4.8-6.6-7.8-9.2-9.2-4.3-2.3-11.2-3.5-20.7-3.5-13.6,0-25.1,3.6-34.6,10.7-9.4,7.1-14.2,15.9-14.2,26.2s.5,6.5,1.4,8.5c1.5,3.2,4.1,5.1,7.9,5.7h-4.7c-6.1,0-10.3-2.1-12.6-6.2-.7-1.3-1.3-3.5-1.7-6.4,0-4.8,3.6-11.6,10.9-20.4,6.8-7.7,13.6-15.3,20.4-22.9,7.4-8.6,11.1-14.8,11.1-18.7v-59.1c0-8.6,1.3-17.1,4-25.7,2.7-8.6,6.2-14.9,10.5-19.1l-25.4.7c-26.3.8-49.3-4,.2-5.5l29.7-.9,3.6-3.7v3.7h.7c18.1,0,32.8,4.2,44.1,12.5,13.1,9.7,19.7,23.8,19.7,42.4Z"/>
  <path class="st11" d="M206.5,124c0,10-2.1,18.5-6.2,25.7-4.6,8-10.7,11.9-18.2,11.9s-13-3.8-17.9-11.5c-4.4-6.9-6.6-14-6.6-21.3s2-16.8,5.9-20.5c3.5-3.3,9.7-4.9,18.7-4.9s13.8,1.6,18.1,4.9c4.2,3.3,6.4,8.5,6.4,15.6h0ZM191.1,126.9c0-3.7-.8-6.4-2.5-8.2-1.7-1.8-4-2.7-6.8-2.7s-5.4.9-6.9,2.6c-1.6,1.7-2.4,4.5-2.4,8.4,0,5.5,1,10.4,3.1,14.7,2.1,4.2,4.1,6.3,6.2,6.3s4.5-2.3,6.4-7c1.9-4.7,2.9-9.4,2.9-14.2Z"/>
  <rect class="st15" x="211.7" y="31.2" width="20.1" height="130.4"/>
  <path class="st12" d="M230.1,190.4h-2.6l-1.3,3.9-1.3,2.6-1.3,3.9v9.1l1.3,1.3h2.6l1.3-1.3,1.3-1.3,1.3-1.3,1.3-1.3,1.3-1.3,1.3-1.3,1.3-1.3v-3.9h-1.3l-1.3,1.3-1.3,1.3-1.3,1.3v-2.6l1.3-3.9,1.3-3.9v-2.6h-2.6l-1.3,1.3h0ZM203.6,191.7l-1.3,7.8v9.1l1.3,1.3,2.6,1.3h2.6l1.3-9.1,1.3-1.3h6.6l1.3-1.3,1.3-1.3v-1.3l-1.3-2.6h-2.6l-5.3,1.3-1.3-1.3-1.3-1.3h-2.6v-2.6h-1.3l-1.3,1.3h0ZM178.5,187.8l-2.6,1.3-1.3,1.3-1.3,1.3-1.3,1.3v9.1l1.3,1.3,1.3,1.3h7.9l1.3-1.3,1.3-1.3,2.6-1.3v5.2l1.3,1.3h6.6l1.3-1.3v-1.3l-1.3-1.3h-2.6v-7.8l-1.3-1.3h-4l-1.3,1.3-1.3,1.3-1.3,1.3-2.6,1.3-5.5,1.3,1.5-3.9,1.3-1.3,2.6-1.3,4-1.3,4-1.3,1.3-1.3v-1.3l-1.3-2.6h-6.6l-4,1.3h0ZM161.3,167l1.3-1.3h2.6v2.6h4l1.3,2.6,1.3,3.9v5.2l-1.3,3.9-1.3,2.6-1.3,1.3h-1.3v-3.9l1.3-2.6,1.5-5.2h-4.2s0,2.6,0,2.6l-1.3,5.2-1.3,5.2-1.5,3.9h8.1v3.9h-9.3v6.5l-5.3,1.3h-2.6v-15.6h4v-2.6l1.3-6.5,1.3-5.2,1.3-3.9,1.3-3.9h0ZM136.1,177.4l-2.6,1.3-1.3,1.3-1.3,1.3-1.3,1.3-1.3,1.3-1.3,1.3-1.3,1.3-1.3,1.3-1.3,2.6-1.3,1.3-1.3,2.6v9.1h5.3l1.3-1.3,1.3-1.3,1.3-1.3,1.3-1.3,1.3-1.3,1.3-1.3,1.3-1.3,1.3,2.6,1.3,1.3h5.3l2.6-1.3,2.6-1.3,1.3-1.3v-1.3l-1.3-1.3h-4.2c0,0,1.5-2.6,1.5-2.6v-3.9l-1.3-1.3h-4l-1.3,1.3-1.3,1.3-1.3,1.3-1.3,1.3-1.3,1.3-1.3,1.3-1.3,1.3-1.3,1.3-1.3,1.3-2.8,1.2,1.5-2.5,1.3-1.3,1.3-2.6,1.3-1.3,1.3-1.3,1.3-1.3,2.6-1.3,2.6-1.3,1.3-1.3,2.6-1.3v-5.2h-2.6l-4,1.3h0ZM112.3,165.6l4-1.3h6.6l1.3,1.3v1.3l-2.6,1.3v5.2l-7.9,1.3-1.3,1.3-2.6,1.3-1.3,1.3-1.3,1.3-1.3,1.3-1.3,1.3-1.3,1.3-1.3,1.3-1.3,1.3-1.3,1.3-1.3,1.3-1.3,1.3-1.5,2.5,5.5-1.2,1.3-1.3,2.6-1.3,2.6-1.3h7.9l1.3,1.3,1.3,1.3v6.5l-1.3,1.3-1.3,2.6-1.3,1.3-1.3,2.6-1.3,1.3-1.3,1.3-1.3,1.3-1.3,1.3-1.3,1.3-1.3,1.3-1.3,1.3-2.6,1.3-1.3,1.3-1.3,1.3-2.6,1.3-1.3,1.3-2.6,1.3-2.6,1.3-4,1.3h-6.6l-1.3-1.3v-1.3h5.3v-2.6h-4v-1.3l-1.3-1.3v-1.3l1.3-1.3,9.3-1.3,4-1.3,2.6-1.3,2.6-1.3,1.3-1.3,1.3-1.3,1.3-1.3,1.3-1.3,1.3-1.3,1.3-2.6,1.5-3.9-2.8,1.3-2.6,1.3-1.3,1.3-2.6,1.3-2.6,1.3h-7.9l-1.3-1.3-1.3-1.3v-6.5l1.3-2.6,1.3-1.3,1.3-2.6,1.3-1.3,1.3-1.3,1.3-1.3,1.3-1.3,1.3-1.3,1.3-1.3,1.3-1.3,1.3-1.3,1.3-1.3,1.3-1.3,1.3-1.3,1.3-1.3,2.6-1.3,1.3-1.3,2.6-1.3,2.6-1.3Z"/>
  <path class="st7" d="M240.1,148.4v11.4c0,0-8.9-3.9-8.9-3.9h-16.5l-2.5,1.2-3.8,1.2-2.5,1.2-2.5,1.2c-5.3,2.6-13.9,8.5-13.9,15h1.3l1.3-1.2,1.3-1.2,1.3-1.2c13.5-13.1,25.7-9.3,39.3-6.2-1.2,14.3-30.8,16-40.5,12.5l-3.8,1.2c11.9,10.1,42.4,3.5,50.6-7.5,26,2.6,4.1,47.2,2.5,46.1h2.5c6.3-6.2,11.8-13.3,13.9-23.7,0-12.1,1.2-12.7-3.8-22.4-1.9-3.7-5.1-6.9-8.9-8.7-.6-6.3-.2-13.9-5.1-18.7l-1.3,3.7Z"/>
  <polygon class="st12" points="238.8 179.6 235 180.8 233.8 182.1 233.8 187.1 235 187.1 238.8 185.8 240.1 184.6 241.4 182.1 241.4 178.3 240.1 178.3 238.8 179.6"/>
  <path class="st7" d="M128.7,214.5c-.4.4-.8.8-1.3,1.2-.8.4-1.7.8-2.5,1.2,1.7.4,3.4.8,5.1,1.2,2.5-.4,5.1-.8,7.6-1.2,28.2-1.7,41.4,2.7,64.6,8.7,9.5,2.2,18.2,1.6,26.6,0,1.3-.4,2.5-.8,3.8-1.2.8-.4,1.7-.8,2.5-1.2-9.8-1.1-19.4-2.1-29.1-3.7-1.3-.4-2.5-.8-3.8-1.2-21.1-6.9-52.4-14.1-73.4-3.7Z"/>
  <path class="st12" d="M282.4,199c-.5,1.7-1.4,3-2.7,3.9-1.1.8-2.4,1.2-3.9,1.2-2.5,0-4.6-1.3-6.3-4-1.6-2.5-2.4-5.4-2.4-8.8s.8-6,2.4-8.4c1.7-2.6,3.8-3.8,6.3-3.8s2.6.5,3.8,1.4c1.2.9,2.1,2.2,2.6,3.9l-1,.6c-.4-1.5-1.1-2.7-2.1-3.6-1-.9-2.1-1.3-3.2-1.3-1.9,0-3.5,1-4.7,3.1-1.2,2-1.9,4.7-1.9,8s.5,5.8,1.5,7.9c1.2,2.6,3,3.9,5.3,3.9s2.1-.4,3-1.3c1-.8,1.7-2,2.2-3.5v-.2c0,0,1,.9,1,.9h0ZM295.5,195.9c0,2.5-.6,4.5-1.7,6-1.1,1.4-2.4,2.1-3.9,2.1s-2.7-.8-3.8-2.5c-1.1-1.6-1.7-3.5-1.7-5.6s.5-4.6,1.6-6.2c1.1-1.6,2.4-2.4,3.9-2.4s2.8.8,4,2.4c1.1,1.6,1.7,3.7,1.7,6.2h0ZM293.9,195.8c0-2-.4-3.8-1.1-5.3-.8-1.6-1.8-2.5-3-2.5s-2.3,1-3,2.9c-.5,1.4-.7,3-.7,4.9s.3,3.8,1,5.2c.7,1.4,1.6,2.2,2.8,2.2s2-.7,2.8-2.2c.8-1.4,1.2-3.2,1.2-5.3h0ZM309.8,203.6h-1.7v-13.3c0-.4-.1-.6-.4-.6,0,0-.1,0-.2,0-.1,0-.2.2-.2.4l-3.7,14-3.9-13.6c0-.2-.1-.4-.2-.5,0-.2-.2-.2-.3-.2s-.3.2-.3.6v13.2h-.9v-13.8c0-.7.1-1.3.4-1.6.3-.4.6-.6.9-.6s.8.2,1.1.6c.3.4.6.9.7,1.4l2.8,9.7,3-10.6c.2-.8.6-1.1,1.3-1.1s.8.2,1.1.5c.3.4.4.8.4,1.3v14.3h0ZM320.9,188.7h-5.2c-.1,0-.3,0-.3.3,0,.2-.1.4-.1.6v5.3h4.6v.8h-4.6v5.4c0,.4,0,.7.3,1.1.2.4.4.6.8.6h4.6v.9h-5.8c-.4,0-.7-.2-1-.7-.3-.5-.4-1-.4-1.5v-11.3c0-.6.1-1.2.4-1.6.3-.5.5-.7.8-.7h6.1v1h0ZM324.9,202.5c0,.4,0,.7-.3.9-.2.3-.4.4-.7.4s-.5-.1-.7-.4c-.2-.2-.3-.5-.3-.9s0-.7.3-.9c.2-.3.4-.4.7-.4s.5.1.7.4c.2.3.3.6.3.9h0ZM337.8,197.1c0,1.9-.5,3.5-1.4,4.9-1,1.5-2.3,2.2-3.9,2.2s-2-.3-2.8-.9c-.8-.6-1.4-1.4-1.8-2.6l.8-.8c.4.9,1,1.7,1.7,2.3.7.6,1.4.9,2.1.9,1.1,0,1.9-.6,2.5-1.8.5-1.1.8-2.3.8-3.8s-.6-3.1-1.7-3.8l-4.4-2.9c-.4-.3-.7-.8-1.1-1.7-.4-1.1-.7-2.1-.7-3.2,0-1.8.5-3.4,1.4-4.7.9-1.4,2.1-2,3.6-2s1.8.3,2.6.8c.8.6,1.3,1.4,1.6,2.4l-.7.6c-.4-.8-.8-1.5-1.4-2-.6-.5-1.2-.8-1.9-.8s-1.6.5-2.3,1.5c-.7,1-1,2.1-1,3.4s.2,1.8.5,2.5c.3.8.8,1.3,1.4,1.8l3.8,2.4c.6.4,1.1,1.1,1.6,2.2.4,1,.7,2.1.7,3.2h0ZM347.7,188.7h-3.1v14.9h-1.8v-14.9h-3.2v-.9h8v.9h0ZM358.4,203.6h-1.8s-1.3-4.5-1.3-4.5h-4.9l-.9,4.5h-.9s3.3-14.9,3.3-14.9c0-.4.2-.7.4-.9.2-.3.5-.4.8-.4s.6.2.8.5c.3.3.4.7.6,1.1l3.8,14.7h0ZM355.2,198.3l-2.1-8c0-.3-.2-.5-.4-.5s-.2,0-.3.2c0,.1-.1.3-.2.5l-1.7,7.8h4.6ZM369.5,187.7l-7.2,22.9h-.8s2.4-7.8,2.4-7.8l-4.7-15.2h1.6l4,12,3.9-12h.8ZM371.4,202.5c0-.4,0-.7-.3-.9-.2-.3-.4-.4-.7-.4s-.5.1-.7.4c-.2.3-.3.6-.3.9s0,.7.3.9c.2.2.4.4.7.4s.5-.1.7-.4c.2-.3.3-.6.3-.9h0ZM385.6,203.6h-10.5v-23.8h10.1v1.2h-8.2v9.9h7.8v1.2h-7.8v10.3h8.6v1.2h0ZM397.5,203.6h-1.8l-3.7-6.9-3.9,7h-.9s4.3-7.7,4.3-7.7l-4.1-8.3h1.7l3.5,6.6,3.8-6.6h.9l-4.2,7.4,4.4,8.6h0ZM410,196c0,2.4-.6,4.2-1.7,5.4-1.3,1.5-3.6,2.3-6.8,2.3v6.7h-1.7v-22.7h4.5c1.6,0,2.9.7,3.9,2.2,1.1,1.6,1.7,3.6,1.7,6.1h0ZM408.2,196.1c0-2.5-.5-4.5-1.5-6-.8-1.1-1.6-1.6-2.4-1.6h-2.7v14.3h1.1c1.7,0,2.9-.4,3.9-1.3,1.1-1.1,1.6-2.9,1.6-5.4h0ZM417,203.6h-2.9c-.3,0-.6-.2-.9-.7-.2-.3-.3-.6-.3-.9v-24.9h1.8v24.3c0,.9.3,1.3.8,1.3h1.5v.9h0ZM429.1,195.9c0,2.5-.6,4.5-1.7,6-1.1,1.4-2.4,2.1-3.9,2.1s-2.7-.8-3.8-2.5c-1.1-1.6-1.7-3.5-1.7-5.6s.5-4.6,1.6-6.2c1.1-1.6,2.4-2.4,3.9-2.4s2.8.8,4,2.4c1.1,1.6,1.7,3.7,1.7,6.2h0ZM427.5,195.8c0-2-.4-3.8-1.1-5.3-.8-1.6-1.8-2.5-3-2.5s-2.3,1-3,2.9c-.5,1.4-.7,3-.7,4.9s.3,3.8,1,5.2c.7,1.4,1.6,2.2,2.8,2.2s2-.7,2.8-2.2c.8-1.4,1.2-3.2,1.2-5.3h0ZM440.1,203.6h-1.8l-3.9-8.4h.8c.9,0,1.6-.2,2.1-.6.6-.5,1-1.3,1-2.4s-.3-2.2-.9-2.8c-.6-.6-1.4-.8-2.4-.8s-.7,0-.8,0c-.2,0-.4.1-.4.1v14.9h-1.8v-15.9h4.6c.8,0,1.6.5,2.4,1.5.7.8,1,1.8,1,3.1s-.3,2-1,2.7c-.6.6-1.3.9-2.3,1.1.7,1.6,1.2,2.8,1.7,3.8.6,1.3,1.2,2.5,1.8,3.7h0ZM449.9,188.7h-5.2c-.1,0-.3,0-.3.3,0,.2-.1.4-.1.6v5.3h4.6v.8h-4.6v5.4c0,.4,0,.7.3,1.1.2.4.4.6.8.6h4.6v.9h-5.8c-.4,0-.7-.2-1-.7-.3-.5-.4-1-.4-1.5v-11.3c0-.6.1-1.2.4-1.6.3-.5.5-.7.8-.7h6.1v1Z"/>
  <path class="st4" d="M84.9,111.8c0,.6-.5,1.2-.9,1.2-.6,0-1.2-.5-1.2-.9,0-.6.5-1.2.9-1.2.6,0,1.2.5,1.2.9Z"/>
  <path class="st10" d="M82.9,112.1c0,.4.6.9,1.2.9s.9-.6.9-1.2-.6-.9-1.2-.9-.9.6-.9,1.2h0ZM88.4,113v.3c0,1.8-1.6,2.9-3.5,2.9s-3.5-1.1-3.5-2.9v-.3c0-1.8,1.6-2.9,3.5-2.9s3.5,1.1,3.5,2.9Z"/>
  <path class="st3" d="M88.4,113c0-1.8-1.6-2.9-3.5-2.9s-3.5,1.1-3.5,2.9v.3c0,1.8,1.6,2.9,3.5,2.9s3.5-1.1,3.5-2.9v-.3h0ZM98.7,111.2l.3.3-.3-.3-3.8-3.8c0,1.5-.5,3.3-.6,4.7-.2,2.6-.4,2.4-2.1,3.5-2.3,1.6-4.4,3.3-6.4,4.7-1.4-.6-4.2-.7-5.8-1.2-1.7-.5-3.4-1.3-5.1-1.9-2.9-1-7.7-3.1-11.2-3.1h-1.2c-1.3,0-2.8,0-3.2.9h-4.4l2.6-2.9-2.3-1.3-.2-.2,4-2.6-2.1-3.8,4.7-.6-2.1-2.8,7.4-1.1-6.5-3c1.3-.3,1.5-1.2,3.5-1.2h.9c0,0,3.3.1,3.3.1l-4.5-3.7,5.5.4h.3c0-.1-1.9-4.3-1.9-4.3l4.5,2.8.9-4.1c1.1,1.6.7,2.1,2.4,3.7,1.1,1,2.4,1.9,3.7,2.7,2.6,1.6,5.1,3.2,7.5,5,3,2.3,11.2,9.4,12,13.1Z"/>
  <path class="st8" d="M98.7,111.2l.3.3c1.9,2.9,13.3,8.2,17.3,10.1,3.8,1.8,15.6,7.4,17.4,10-.4.2-.3.3-.9.3h-.3c-3.5,0-18.2-4.3-22-5.4-2.9-.9-19.8-5.9-21.8-5.7l-3.5.3.6-.8c2.1-1.4,4.1-3.1,6.4-4.7,1.7-1.1,1.8-.9,2.1-3.5.1-1.4.6-3.2.6-4.7l3.8,3.8Z"/>
  <path class="st7" d="M59.3,115c1.5.1,5,1.8,6.5,2.3,2.5.9,3.2,2.2,4.3,4.4.4.8,1.2,3,1.2,4.1v1.8c0,3.2-1.8,6.5-3.2,8.5-1.6,2.4-4.6,4.6-5.6,6.1-3,2-5.4,4.2-8.7,6.1-2.7,1.6-7.8,3.7-9.9,5.2-1.5.8-8.5,4.1-10.2,4.1s-1.5-8-1.5-10.5l.9-8.2c.9-1.4,2-6.1,3.1-8.3,1.3-2.5,2.7-4.9,4.5-6.8,2.1-2.2,3.5-3.6,6.1-5.3,2.9-1.9,5.2-2.2,8.1-3.6h4.4Z"/>
  <path class="st12" d="M87,140.4c-4.4,2.9-5.1,4.7-12.8,4.7s-10.3-1.8-11.7-2.9c1-1.5,4-3.6,5.6-6.1,1.3-2,3.2-5.4,3.2-8.5v-1.8c0-1.1-.8-3.3-1.2-4.1,1.2.6,8.6.6,10.8.6s10.8-.7,10.8.9v3.5c0,7.4-1.8,9.4-4.7,13.7Z"/>
  <path class="st12" d="M32.1,147.1l-32.1,2c.5-1.3,14.2-4.5,16.4-5.2,4.5-1.4,12.9-3.3,16.6-5l-.9,8.2Z"/>
  <path class="st5" d="M67.7,155l-.6-1.2h-1.2v1.8l-7.6,1.5c-1.4-.4-3-2.6-4.4-2.6s-.6.4-.6.9c0,.8,1,1.3,1.5,1.8-5.3-.1-7.8-2.7-11.1-3.5,2.2-1.5,7.2-3.7,9.9-5.2,3.3-2,5.8-4.2,8.7-6.1,1.3,1.2,8.9,2.9,11.7,2.9,7.8,0,8.5-1.7,12.8-4.7-3.2,6-11.9,12.9-19.3,14.6Z"/>
  <path class="st14" d="M58.4,157c1.3.6,2.8,1.2,4.4,1.8,1.8.8,2.6.8,4,2.7.7.8,2.1,3.2,2.1,4.6s-.3.6-.6.6c-1.2,0-1.9-3.9-4.2-5.5-1-1.1-7-1.7-9.3-4.2-.5-.4-1.5-.9-1.5-1.8s.2-.9.6-.9c1.4,0,3,2.2,4.4,2.6Z"/>
  <path class="st14" d="M67.7,155c.2,1,.5,2,.7,3,1.6,1,3.2,1.9,4.9,2.9,1.3,1.2,3.2,2.9,3.2,5.8v.3c0,.5-.2.9-.6.9-1,0-1.2-2-1.7-3-2-4.6-7-3-8.3-9.2-.1-.6-.1-1.2,0-1.8.4-.1.8-.1,1.2,0,.2.3.5.6.6,1.2Z"/>
  <path class="st7" d="M198,171.4c1.3,0,2.4,1.1,2.4,2.4s-1.1,2.4-2.4,2.4-2.4-1.1-2.4-2.4,1.1-2.4,2.4-2.4Z"/>
  <path class="st2" d="M204.7,180.1c1.4-2.7,2.1-5.6.4-9.4"/>
  <path class="st0" d="M402.3,18V2.4h-5.8V.3h14v2.1h-5.8v15.6h-2.3ZM413.6,18V.3h3.5l4.2,12.5c.4,1.2.7,2,.8,2.6.2-.6.5-1.6.9-2.8l4.2-12.3h3.1v17.6h-2.2V3.2l-5.1,14.7h-2.1l-5.1-15v15h-2.2Z"/>
</svg>